<svg width="220" height="32" viewBox="0 0 220 32" fill="none" xmlns="http://www.w3.org/2000/svg">
<path d="M5.00902 31.1098C2.6541 31.1098 0.960207 29.5398 0.960207 27.0196C0.960207 26.1107 1.04284 25.4497 1.16678 24.5821L3.2325 10.1634H0.34049C0.0512892 10.1634 -0.0313397 10.1634 0.00997484 9.95678L0.0512892 9.75021C0.0926037 9.58495 0.175233 9.58495 0.423119 9.58495L3.27382 9.50232L3.8109 5.78402C3.85222 5.53614 3.89353 5.4535 4.1001 5.32956C5.13297 4.70984 6.12451 3.96618 6.78554 3.26384C6.99212 3.05727 7.03343 2.97464 7.28132 2.97464H7.32263C7.57052 2.97464 7.61183 3.01595 7.57052 3.26384L6.6616 9.50232H11.1649C11.3714 9.50232 11.4954 9.50232 11.4541 9.70889L11.4128 9.95678C11.3714 10.122 11.3301 10.1634 11.0822 10.1634H6.57897L4.34799 25.3671C4.22405 26.1934 4.14142 27.1023 4.14142 27.9286C4.14142 29.2919 4.80245 30.2009 6.04188 30.2009C7.40526 30.2009 8.47943 28.7135 8.76864 26.9783C8.80995 26.7304 8.85126 26.5652 9.05784 26.5652H9.22309C9.47098 26.5652 9.5123 26.7304 9.47098 26.9783C9.01652 29.5398 7.40526 31.1098 5.00902 31.1098Z" fill="#656A6B"/>
<path d="M31.7675 30.5727L25.8183 30.7793C25.5291 30.7793 25.4878 30.6966 25.5291 30.4074L27.6774 15.369C27.76 14.7079 27.884 13.8403 27.884 13.0967C27.884 11.5267 27.3056 9.99809 25.2399 9.99809C22.8436 9.99809 20.9018 12.4356 18.8774 15.1211L16.7291 30.2422C16.6878 30.5314 16.6465 30.5727 16.4399 30.5727H13.6718C13.3826 30.5727 13.3413 30.4901 13.3826 30.2009L17.0596 4.33801C17.5554 0.867602 17.4314 0.578402 16.5225 0.578402H14.6221C14.4155 0.578402 14.3329 0.495772 14.3742 0.330514L14.4155 0.165256C14.4568 0.0413139 14.5807 0 14.746 0H20.6953C20.9845 0 21.0258 0.0826278 20.9845 0.37183L19.084 13.7164H19.1666C21.1497 11.1549 23.3394 8.96523 26.314 8.96523C29.2061 8.96523 31.1478 10.9483 31.1478 13.5924C31.1478 14.3774 31.0652 15.245 30.9413 16.1126L29.4953 26.2347C28.9995 29.7051 29.1234 29.9943 30.0323 29.9943H31.8915C32.0981 29.9943 32.1807 30.0769 32.1394 30.2422L32.0981 30.4074C32.0567 30.5314 31.9328 30.5727 31.7675 30.5727Z" fill="#656A6B"/>
<path d="M47.3147 12.9314C47.3147 10.907 46.6123 9.62626 44.7119 9.62626C40.4978 9.62626 39.3823 16.0713 38.7626 19.3765H39.4236C44.9598 19.3765 47.3147 17.2281 47.3147 12.9314ZM50.8677 13.5511C50.8677 19.3765 44.0508 19.9962 39.341 19.9962H38.68C38.5147 21.2769 38.4321 22.4337 38.4321 23.5905C38.4321 27.2262 39.7541 29.829 43.1419 29.829C46.1166 29.829 48.7607 27.4741 49.2978 23.7558C49.3391 23.5079 49.3804 23.3427 49.587 23.3427H49.8349C50.0828 23.3427 50.0828 23.4666 50.0414 23.7558C49.587 27.2262 47.0255 31.1098 41.6133 31.1098C37.0687 31.1098 34.6725 28.3004 34.6725 23.5492C34.6725 16.8976 37.9363 8.96523 45.125 8.96523C47.9344 8.96523 50.8677 10.246 50.8677 13.5511Z" fill="#656A6B"/>
<path d="M75.7539 31.1098H72.6553C72.4074 31.1098 72.3248 31.0271 72.1595 30.8206L57.3689 9.91547H57.3276V20.4506C57.3276 27.5154 58.5257 28.9614 60.922 29.0441L62.368 29.0854C62.6159 29.1267 62.6985 29.168 62.6985 29.4159V30.2835C62.6985 30.5314 62.6159 30.5727 62.368 30.5727H52.1633C51.9154 30.5727 51.8328 30.5314 51.8328 30.2835V29.4159C51.8328 29.168 51.9154 29.1267 52.1633 29.0854L52.7417 29.0441C54.3943 28.9614 55.3445 27.4741 55.3445 20.4506V7.93237C55.3445 4.62722 55.1793 4.25539 54.1051 4.21407L52.3286 4.17276C52.0807 4.13144 51.9981 4.09013 51.9981 3.84224V2.97464C51.9981 2.72675 52.0807 2.68544 52.3286 2.68544H61.0459C61.2938 2.68544 61.4178 2.76807 61.583 3.01595L74.1013 20.9877H74.1839V12.8075C74.1839 5.74271 72.9445 4.2967 70.5482 4.21407L69.1022 4.13144C68.8544 4.13144 68.7717 4.09013 68.7717 3.84224V2.97464C68.7717 2.72675 68.8544 2.68544 69.1022 2.68544H79.2656C79.5135 2.68544 79.5961 2.72675 79.5961 2.97464V3.84224C79.5961 4.09013 79.5135 4.13144 79.2656 4.13144L78.6872 4.21407C77.0759 4.33801 76.167 5.78402 76.167 12.8075V30.8206C76.167 31.0271 76.0431 31.1098 75.7539 31.1098Z" fill="#C01823"/>
<path d="M100.651 24.5408C99.8657 28.0938 96.891 31.1098 91.4789 31.1098C84.0836 31.1098 79.539 26.937 79.539 20.1201C79.539 13.3859 83.7117 8.51077 90.9004 8.51077C96.1061 8.51077 100.733 11.2788 100.733 17.6413V17.8892C100.733 18.922 100.403 19.2525 99.1633 19.2525H86.9343V19.9136C86.9343 24.8713 88.1737 28.7962 93.1314 28.7962C96.4366 28.7962 98.3784 26.8957 99.1633 24.2516C99.246 24.045 99.3286 23.9211 99.5765 23.9624L100.444 24.0863C100.651 24.1276 100.692 24.2516 100.651 24.5408ZM94.1643 16.1126C94.1643 11.8986 93.1314 10.0394 90.6526 10.0394C87.8432 10.0394 86.9343 12.5596 86.9343 17.6413H92.4704C93.7925 17.6413 94.1643 17.3107 94.1643 16.1126Z" fill="#C01823"/>
<path d="M117.182 26.8131C116.645 29.4572 114.703 31.1098 111.563 31.1098C107.927 31.1098 104.705 29.2093 104.705 24.4581V13.2443L108.526 10.9483H104.705H102.061C101.813 10.9483 101.73 10.907 101.73 10.7004V9.50232C101.73 9.25443 101.813 9.21312 102.061 9.17181L104.705 9.04786V4.91642C104.705 4.66853 104.746 4.54459 104.994 4.46196C106.688 3.88356 108.753 2.97464 110.158 2.06572C110.365 1.90046 110.489 1.81783 110.778 1.81783H111.274C111.48 1.81783 111.522 1.85915 111.522 2.10704V9.04786H115.983C116.231 9.04786 116.355 9.08918 116.355 9.33706V10.7004C116.355 10.907 116.231 10.9483 115.983 10.9483H111.522V25.1192C111.522 27.5567 111.976 28.7135 113.546 28.7135C114.661 28.7135 115.405 27.9699 115.736 26.6065C115.777 26.3586 115.901 26.276 116.107 26.3173L116.934 26.3999C117.182 26.4412 117.223 26.5652 117.182 26.8131Z" fill="#C01823"/>
<path d="M152.278 10.4112L151.864 10.4939C150.956 10.5765 150.625 10.9483 149.923 12.6009C149.633 13.3446 149.138 14.7079 148.601 16.3605L143.973 30.8206C143.891 31.0271 143.849 31.1098 143.56 31.1098H140.42C140.172 31.1098 140.09 31.0685 140.007 30.8206L135.173 15.8647H135.091L129.72 30.8206C129.637 31.0271 129.596 31.1098 129.307 31.1098H126.208C125.96 31.1098 125.878 31.0685 125.795 30.8206L120.218 14.0882C119.102 10.7004 118.854 10.5765 117.78 10.4939L117.284 10.4112C117.036 10.4112 116.954 10.3699 116.954 10.122V9.33706C116.954 9.08918 117.036 9.04786 117.284 9.04786H128.728C128.976 9.04786 129.059 9.08918 129.059 9.33706V10.122C129.059 10.3699 128.976 10.4112 128.728 10.4112L127.985 10.4526C127.324 10.4939 126.952 10.6178 126.952 11.2788C126.952 11.8159 127.158 12.6422 127.53 14.0882L130.34 23.9211H130.381L132.984 16.5258C133.356 15.4516 133.851 13.8403 133.851 12.5183C133.851 11.2788 133.356 10.4939 132.323 10.4526L131.744 10.4112C131.496 10.4112 131.414 10.3699 131.414 10.122V9.33706C131.414 9.08918 131.496 9.04786 131.744 9.04786H142.156C142.403 9.04786 142.486 9.08918 142.486 9.33706V10.122C142.486 10.3699 142.403 10.4112 142.156 10.4112L141.371 10.4526C140.751 10.4939 140.379 10.6178 140.379 11.2375C140.379 11.7746 140.627 12.6422 141.081 14.0882L144.387 23.9211H144.428L146.535 16.4431C146.948 15.0798 147.32 13.4685 147.32 12.3117C147.32 11.1549 146.824 10.4939 145.791 10.4526L145.048 10.4112C144.8 10.4112 144.717 10.3699 144.717 10.122V9.33706C144.717 9.08918 144.758 9.04786 145.006 9.04786H152.278C152.525 9.04786 152.608 9.08918 152.608 9.33706V10.122C152.608 10.3699 152.525 10.4112 152.278 10.4112Z" fill="#C01823"/>
<path d="M175.188 19.3352C175.188 26.152 171.057 31.1098 163.372 31.1098C155.812 31.1098 151.928 26.8957 151.928 20.2028C151.928 13.3446 156.059 8.51077 163.744 8.51077C171.304 8.51077 175.188 12.6009 175.188 19.3352ZM167.751 19.4178C167.751 13.4272 166.843 10.122 163.579 10.122C160.315 10.122 159.406 13.6338 159.406 20.1201C159.406 26.1107 160.274 29.4985 163.537 29.4985C166.801 29.4985 167.751 25.8628 167.751 19.4178Z" fill="#C01823"/>
<path d="M189.857 30.5727H176.719C176.471 30.5727 176.388 30.5314 176.388 30.2835V29.4985C176.388 29.2506 176.471 29.2093 176.719 29.168L178.289 29.1267C179.321 29.0854 179.363 28.8375 179.363 25.6976V14.584C179.363 10.7418 179.032 10.5352 177.958 10.4526L176.719 10.4112C176.471 10.4112 176.388 10.3699 176.388 10.122V9.33706C176.388 9.08918 176.471 9.04786 176.719 9.04786H185.271C185.519 9.04786 185.643 9.21312 185.643 9.58495V13.138H185.725C187.089 10.2873 188.865 8.51077 191.509 8.51077C194.112 8.51077 195.765 10.7004 195.765 13.0554C195.765 15.0385 194.484 15.9474 192.501 15.9474C190.394 15.9474 189.609 14.7079 189.609 13.3446C189.609 12.5596 189.939 11.692 190.518 10.9896C190.352 10.9483 190.228 10.9483 190.063 10.9483C188.493 10.9483 187.295 12.4356 186.18 14.7493V25.6976C186.18 28.8375 186.221 29.1267 187.254 29.1267L189.857 29.168C190.104 29.168 190.187 29.2506 190.187 29.4985V30.2835C190.187 30.5314 190.104 30.5727 189.857 30.5727Z" fill="#C01823"/>
<path d="M219.669 30.5727H211.902C211.613 30.5727 211.531 30.5314 211.365 30.2422L206.036 20.8225C205.127 21.7727 204.755 22.599 204.755 24.2929V25.8215C204.755 28.8375 204.796 29.0854 205.829 29.1267L207.11 29.168C207.358 29.2093 207.399 29.2506 207.399 29.4985V30.2835C207.399 30.5314 207.358 30.5727 207.11 30.5727H195.294C195.046 30.5727 194.963 30.5314 194.963 30.2835V29.4985C194.963 29.2506 195.046 29.2093 195.294 29.168L196.864 29.1267C197.897 29.0854 197.938 28.8375 197.938 25.6976V4.8751C197.938 1.73521 197.897 1.48732 196.864 1.446L195.294 1.40469C195.046 1.36338 194.963 1.32206 194.963 1.07417V0.2892C194.963 0.0413139 195.046 0 195.294 0H204.383C204.631 0 204.755 0.165256 204.755 0.537086V20.1201H204.838C205.333 19.1286 206.903 17.476 209.547 14.7493C210.622 13.6338 211.448 12.6835 211.448 11.692C211.448 10.9483 211.035 10.5352 210.043 10.4939L208.762 10.4112C208.515 10.4112 208.432 10.3699 208.432 10.122V9.33706C208.432 9.08918 208.515 9.04786 208.762 9.04786H218.926C219.174 9.04786 219.256 9.08918 219.256 9.33706V10.122C219.256 10.3699 219.174 10.4112 218.926 10.4112L218.265 10.4939C216.488 10.5765 215.249 11.3615 212.646 13.9643L210.87 15.7821L216.488 25.7389C218.223 28.7549 218.554 29.0854 219.256 29.1267L219.669 29.168C219.917 29.2093 220 29.2506 220 29.4985V30.2835C220 30.5314 219.917 30.5727 219.669 30.5727Z" fill="#C01823"/>
</svg>
